<svg width="33" height="45" viewBox="0 0 33 45" fill="none" xmlns="http://www.w3.org/2000/svg">
<path d="M18.7786 2.41239C21.1369 2.75749 23.38 3.67777 25.2781 5.1157C26.8886 6.32356 28.154 7.93405 29.0167 9.7746C29.7645 11.3851 30.1671 13.2256 30.1096 15.0087C30.052 15.8714 29.937 16.7342 29.6494 17.5394H29.5344L29.5919 16.3316C29.6494 14.6061 29.4769 12.9381 28.8442 11.3276C28.269 9.60205 27.2337 8.04908 25.9683 6.7837C23.5526 4.48301 20.3316 3.21763 16.9956 3.16011C14.8258 3.12425 12.6774 3.59415 10.7207 4.53258C8.76392 5.47102 7.05258 6.85221 5.72222 8.56674C4.01891 10.8684 3.20211 13.7067 3.42153 16.5616L3.53656 17.9996C3.9967 17.9996 4.62939 17.9996 4.97449 18.4022L4.80194 18.5748L3.82415 18.6323C3.13394 18.6898 2.44373 18.9199 1.92608 19.38C1.35388 19.9943 1.00888 20.7858 0.948283 21.6232C0.660696 23.4637 1.63849 25.3618 3.19146 26.3971C4.11174 26.9723 5.26208 27.2599 6.35491 26.9148C6.58498 26.7997 6.87257 26.6272 7.16015 26.7422C7.3327 26.7997 7.39022 26.9723 7.44774 27.1448C8.61771 29.4974 10.4075 31.4861 12.6243 32.8966C13.0844 33.2992 13.6596 33.6443 14.2348 33.9319C15.2701 34.392 16.4204 34.7371 17.5133 35.0247L19.3538 35.4848C19.6414 35.5424 19.8715 35.5424 20.1015 35.6574L19.8715 35.7149C18.4335 35.8299 17.1106 35.5424 15.7302 35.1397C15.04 34.9672 14.4073 34.7371 13.7746 34.4495C11.9674 33.5291 10.3329 32.3032 8.94319 30.8259L9.05822 32.4364C9.11574 33.4142 9.05822 34.4495 8.71312 35.4273C8.48305 36.1175 8.08043 36.8077 7.62029 37.3829C7.04512 37.9581 6.35491 38.4757 5.6647 38.8784C5.08953 39.281 4.45684 39.6836 3.82415 39.9137L2.90387 40.2013L3.42153 39.6836L5.20456 38.5333L6.46995 37.5555C7.44031 36.7293 8.09137 35.5899 8.3105 34.3345C8.42553 33.5293 8.42553 32.724 8.42553 31.8612V30.3083C7.85036 29.503 7.16015 28.6403 6.87257 27.6625C5.89477 28.1226 4.68691 28.0651 3.70911 27.605C2.73132 27.2023 1.86856 26.5121 1.23587 25.7069C0.545662 24.7291 0.143041 23.6363 0.0280059 22.4859C-0.0870287 21.3356 0.143041 20.1852 0.890766 19.265C1.40842 18.6898 2.15615 18.2296 2.90387 18.0571C2.6738 17.2519 2.55877 16.3891 2.55877 15.5263C2.60609 13.6246 3.05603 11.7544 3.87892 10.0393C4.7018 8.32408 5.87894 6.80284 7.3327 5.57584C8.90332 4.26061 10.7378 3.29764 12.7124 2.75191C14.6869 2.20618 16.7555 2.0904 18.7786 2.41239Z" fill="#262626"/>
<path d="M25.9679 6.78956C27.2333 8.05494 28.2686 9.60791 28.8438 11.3334C29.4765 12.9439 29.6491 14.6119 29.5915 16.3374L29.534 17.5453L29.2464 18.4081L29.1314 19.1558L29.2464 22.3768C29.2464 23.5846 29.3039 24.7925 29.1889 26.0003L29.0164 28.7037C28.9013 29.6239 28.6137 30.4867 28.2111 31.2919C27.5784 32.3273 26.7157 33.19 25.6804 33.8227C24.9326 34.2828 24.1274 34.5129 23.3221 34.743L21.1365 35.3757L20.1587 35.5482C20.1587 35.6057 20.2162 35.6633 20.3312 35.6633C20.7914 35.9508 21.309 35.9508 21.8267 35.8933C21.6541 36.2959 21.5966 36.6986 21.7117 37.1587C21.8842 37.5613 22.3444 37.7914 22.6895 37.9639C23.3797 38.3091 24.0699 38.3666 24.7601 38.4816C25.1627 38.8267 25.5653 39.2868 25.6804 39.862C25.7954 40.3222 25.7954 40.7823 25.5653 41.1849C25.2777 41.7601 24.7601 42.2202 24.1849 42.5078C23.4372 42.968 22.6319 43.3131 21.7692 43.5431C17.5699 44.5484 13.1904 44.5286 9.00034 43.4856C8.02254 43.2555 7.10227 42.968 6.23951 42.5078C5.5493 42.1627 4.91661 41.7601 4.39895 41.2424C4.11137 40.8398 3.8813 40.4372 3.82378 39.9195C4.45647 39.6895 5.08916 39.2868 5.66433 38.8842C6.35454 38.4816 7.04475 37.9639 7.61992 37.3888C8.08006 36.8136 8.48268 36.1234 8.71275 35.4332C9.05786 34.4554 9.11537 33.4201 9.05786 32.4423L8.94282 30.8318L10.2082 32.1547C11.301 33.0175 12.5089 33.8802 13.7743 34.4554C14.407 34.743 15.0397 34.973 15.7299 35.1456C17.1103 35.5482 18.4332 35.8358 19.8711 35.7208L20.1012 35.6633C19.8711 35.5482 19.641 35.5482 19.3535 35.4907L17.5129 35.0306C16.4201 34.743 15.2697 34.3979 14.2344 33.9377L12.5664 32.9599C11.9337 32.4423 11.2435 31.9821 10.6683 31.407C9.33946 30.2008 8.24714 28.7573 7.44737 27.1507C7.38985 26.9781 7.33234 26.8056 7.15978 26.7481C6.8722 26.633 6.58461 26.8056 6.35454 26.9206C5.26171 27.2657 4.11137 26.9781 3.19109 26.403C2.41448 25.8903 1.79422 25.1735 1.39848 24.3313C1.00275 23.4891 0.846845 22.5541 0.947914 21.629C1.00543 20.8238 1.35054 20.0185 1.92571 19.3859C2.44336 18.9257 3.13357 18.6956 3.82378 18.6381L4.80157 18.5806L4.97413 18.4081C4.62902 18.0054 3.99633 18.0054 3.53619 18.0054L3.42116 16.5675C3.20174 13.7126 4.01854 10.8742 5.72185 8.5726C7.05221 6.85807 8.76355 5.47688 10.7203 4.53844C12.677 3.60001 14.8254 3.13011 16.9952 3.16597C20.3312 3.22349 23.5522 4.48887 25.9679 6.78956Z" fill="#FFDECC"/>
<path d="M29.2473 18.4062C29.4199 18.4062 29.4199 18.6363 29.4774 18.7514C29.6499 19.384 29.7074 20.0743 29.765 20.7069L29.88 21.9148C29.9375 23.1802 29.995 24.388 29.9375 25.6534C29.88 26.8613 29.88 28.1842 29.6499 29.3921C29.4056 30.6445 28.8585 31.8182 28.0565 32.8107C27.2545 33.8032 26.2218 34.5844 25.0485 35.0863C24.1858 35.4889 23.2655 35.719 22.2877 35.834V36.6968C22.3452 36.8693 22.4603 36.9268 22.5753 37.0419C23.2655 37.387 23.8982 37.502 24.6459 37.6745C25.3361 37.8471 26.0263 37.9621 26.7165 38.3072C26.544 38.4798 26.3139 38.5373 26.0839 38.5373C25.6812 38.5948 25.2211 38.4798 24.761 38.4798C24.0707 38.3648 23.3805 38.3072 22.6903 37.9621C22.3452 37.7896 21.8851 37.5595 21.7125 37.1569C21.5975 36.6968 21.655 36.2941 21.8276 35.8915C21.3099 35.949 20.7923 35.949 20.3321 35.6614C20.2171 35.6614 20.1596 35.6039 20.1596 35.5464L21.1374 35.3739L23.323 34.7412C24.1283 34.5111 24.9335 34.281 25.6812 33.8209C26.7165 33.1882 27.5793 32.3254 28.212 31.2901C28.6146 30.4849 28.9022 29.6221 29.0172 28.7018L29.1898 25.9985C29.3048 24.7907 29.2473 23.5828 29.2473 22.3749L29.1323 19.154L29.2473 18.4062ZM2.90437 19.9592C3.36451 19.9592 3.88217 20.0167 4.22727 20.3618C4.51486 20.5919 4.80245 20.8795 4.91748 21.2246C4.975 21.3971 4.91748 21.5697 4.80245 21.6847L4.05472 22.1449C3.6521 22.49 3.6521 23.2377 4.05472 23.5828C4.39982 23.8704 4.85996 24.0429 5.26258 24.2155C5.37762 24.2155 5.55017 24.273 5.60769 24.388C5.55017 24.5031 5.43514 24.5606 5.3201 24.5606C4.74493 24.5606 4.16976 24.388 3.70962 24.0429C3.42203 23.8704 3.24948 23.5828 3.19196 23.2952C3.07693 22.8351 3.07693 22.3174 3.42203 21.9148C3.6521 21.5697 4.05472 21.3971 4.45734 21.2246C4.22727 20.937 4.05472 20.5919 3.6521 20.4769C3.24948 20.3043 2.78934 20.3043 2.38672 20.1893L2.90437 19.9592Z" fill="#262626"/>
<path d="M27.6933 16.2812C27.9234 16.2812 28.1535 16.2812 28.2685 16.4538C28.4986 16.6264 28.4986 17.029 28.211 17.2015C28.0384 17.3166 27.8659 17.3166 27.6358 17.3166L26.6005 17.5466C26.6005 17.9493 26.543 18.4094 26.3704 18.812C26.2554 19.0996 26.0253 19.3297 25.7953 19.5022C25.4502 19.6748 25.0475 19.5597 24.8175 19.2722L24.6449 18.812C24.4724 18.9846 24.3573 19.1571 24.1273 19.2722C23.9547 19.3297 23.8972 19.2722 23.8972 19.0996C23.9547 18.7545 24.1273 18.4669 24.3573 18.2368C24.963 17.3981 25.8036 16.7576 26.773 16.3963L27.6933 16.2812ZM13.7741 17.0865C14.4068 17.0865 14.982 17.2015 15.5572 17.3166C16.3624 17.5466 17.1677 17.7767 17.8579 18.3519C18.0304 18.5244 18.318 18.697 18.3755 18.927C18.3755 19.0421 18.3755 19.0996 18.2605 19.0996L17.6278 18.812C17.0526 18.5244 16.3624 18.3519 15.6722 18.2368C15.5572 18.7545 15.4421 19.2722 15.097 19.7323C14.867 19.9624 14.5794 20.0774 14.2343 20.0774C13.7741 20.0199 13.314 19.7898 13.0264 19.4447C12.7388 19.0421 12.6813 18.6395 12.6238 18.1218L11.8185 18.3519C11.646 18.4094 11.4734 18.4669 11.3009 18.4094C11.0133 18.3519 10.8983 18.0643 10.9558 17.7767C11.0133 17.5466 11.2434 17.4316 11.4734 17.3741C12.1636 17.0865 13.0264 17.029 13.7741 17.0865Z" fill="#262626"/>
<path d="M15.9606 10.5869C16.8808 10.6444 17.8586 10.9895 18.6064 11.5647C18.7789 11.7372 19.009 11.8523 19.0665 12.0823C19.124 12.1974 19.009 12.3699 18.8939 12.3124C18.4338 12.2549 18.0312 12.0248 17.571 11.9098C17.1684 11.7372 16.7083 11.6222 16.2481 11.6222C15.8455 11.5647 15.3854 11.6222 14.9828 11.6797C14.12 11.7947 13.2572 12.1974 12.5095 12.6L11.3017 13.1176L11.2441 13.0601C11.3017 12.83 11.4167 12.5425 11.5892 12.3699C11.9343 11.7947 12.567 11.4496 13.1422 11.162C14.005 10.7594 14.9828 10.5294 15.9606 10.5869ZM27.1189 10.8169C27.4065 10.932 27.7516 11.1045 27.9817 11.3921C28.2117 11.6222 28.2693 11.9098 28.2117 12.2549L26.8888 11.8523C26.4862 11.7372 26.1411 11.7947 25.7385 11.7372C25.3359 11.7372 24.8757 11.7947 24.5306 12.0248L23.7829 12.4849H23.6104C23.5528 12.3124 23.6104 12.1398 23.7254 12.0248C24.013 11.5071 24.4731 11.162 24.9908 10.9895C25.681 10.7594 26.3712 10.6444 27.1189 10.8169Z" fill="#262626"/>
<path d="M23.0918 23.6406V23.6981C22.8618 24.1583 22.4591 24.5609 21.9415 24.7335C21.7689 24.791 21.5389 24.791 21.4238 24.6759V24.4459C21.8264 24.1583 22.3441 23.9282 22.8042 23.7557L23.0918 23.6406Z" fill="#262626"/>
<path fill-rule="evenodd" clip-rule="evenodd" d="M15.0403 25.6507L14.235 25.4206H14.1775C14.0625 25.3631 13.8899 25.3631 13.8324 25.4781C13.7749 25.5356 13.8324 25.6507 13.8899 25.6507L14.235 25.8232L14.3501 25.8807C15.6726 26.5487 17.088 27.014 18.5488 27.2611C18.5488 27.6638 18.6639 28.0664 18.9515 28.4115C19.239 28.8141 19.6417 29.1592 20.1593 29.3318C20.7345 29.5618 21.3672 29.5043 21.9424 29.2743C22.5175 29.0442 22.9777 28.584 23.2077 28.0089C23.3228 27.7788 23.3228 27.4912 23.3228 27.2611L24.3581 26.916V26.8585L24.4731 26.7435C23.9171 26.7381 23.3611 26.7381 22.8051 26.7435C21.1534 26.8872 19.4899 26.8098 17.8586 26.5134L15.6155 25.8807L15.5004 25.8232L15.0403 25.6507ZM19.009 27.3187C19.0665 27.8938 19.5266 28.354 20.0443 28.6416C20.7345 29.1592 21.8848 28.9291 22.345 28.1814C22.5175 27.9514 22.5751 27.6638 22.6326 27.3762V27.3187L21.1371 27.4337L21.1946 27.4912C21.1946 27.6638 21.2522 27.7788 21.1371 27.9514C21.0221 28.1239 20.792 28.1239 20.7345 27.9514C20.6195 27.7788 20.6195 27.6063 20.677 27.4337C20.1981 27.3896 19.7188 27.3512 19.239 27.3187H19.009Z" fill="#262626"/>
<path d="M13.3151 0H15.6158C18.4341 0.115035 21.195 0.63269 23.8983 1.26538C25.5088 1.668 27.0042 2.18566 28.4421 2.9909C29.1899 3.45104 29.9951 4.02621 30.5703 4.71642C31.2605 5.46414 31.7206 6.38442 31.8932 7.36222C32.1233 8.57008 32.1233 9.83546 31.7206 11.0433C31.433 11.9061 30.9154 12.7688 30.1677 13.344C29.1324 14.2068 27.8095 14.7819 26.4866 14.8395C26.3715 14.897 26.2565 14.8395 26.2565 14.6669L26.7166 13.7466C26.1002 14.3507 25.352 14.8036 24.531 15.0695C24.3009 15.1271 23.9558 15.1846 23.7257 15.0695V14.7819C23.7257 13.9192 23.6682 13.1139 23.4381 12.3087C23.2656 11.3884 22.8054 10.6407 22.4028 9.83546C22.5179 10.6982 22.4603 11.6185 22.2878 12.4813C22.1152 13.2865 21.7701 13.9767 21.195 14.5519C21.0799 14.7819 20.7923 14.8395 20.5623 14.7244L20.4472 14.3218C20.3322 13.6891 20.0446 13.1139 19.757 12.5388C19.2394 11.3884 18.4916 10.4106 17.6289 9.49036C16.3696 8.23131 14.8873 7.21715 13.2576 6.49946C13.3422 8.51036 13.1486 10.5233 12.6824 12.4813C12.4523 13.2865 12.1072 14.0917 11.5896 14.7819C11.417 15.012 11.1869 15.3571 10.8994 15.4722H10.4967C10.5543 14.7819 10.5543 14.0917 10.4392 13.4015C10.3242 12.7688 10.1516 12.0786 9.86405 11.5035C9.6915 12.5388 9.11632 13.4015 8.42612 14.2068C7.90846 14.6669 7.3908 15.1271 6.75811 15.4722V19.3833L6.81563 21.1089C6.81563 21.2814 6.64308 21.569 6.47053 21.6265C6.18294 21.569 5.95287 21.454 5.7228 21.2814C5.03259 20.8213 4.3999 20.3036 3.82473 19.6709C2.88083 18.6233 2.1596 17.3948 1.70479 16.0601C1.24999 14.7253 1.07108 13.3121 1.17893 11.9061C1.37098 9.43032 2.27757 7.06353 3.78864 5.09301C5.29972 3.12249 7.3503 1.63296 9.6915 0.805242C10.8418 0.345104 12.0497 0.0575173 13.3151 0Z" fill="#262626"/>
</svg>
