<svg width="34" height="46" viewBox="0 0 34 46" fill="none" xmlns="http://www.w3.org/2000/svg">
<path d="M17.2091 0.760878C18.8196 0.818395 20.4301 1.10598 22.0405 1.62364C24.2919 2.25922 26.2974 3.56283 27.7923 5.36226C28.8851 6.8002 29.5753 8.52571 29.8054 10.3088C30.1158 12.2302 30.1545 14.1858 29.9204 16.118L29.6328 18.0736L29.4028 19.2239C29.3452 19.339 29.3452 19.339 29.2302 19.339C29.1152 19.1089 29.1152 18.8788 29.1152 18.6488C29.0577 17.786 29.1727 16.9808 29.2302 16.118C29.2877 14.7376 29.4028 13.3572 29.2877 11.9768L28.9426 9.38847C28.54 7.77799 27.7923 6.28254 26.6419 5.07468C25.6066 4.03936 24.3412 3.17661 23.0183 2.60143C21.753 2.08378 20.4876 1.73867 19.1647 1.5086C18.1294 1.33605 17.0941 1.27853 16.0587 1.27853C13.5065 1.23674 10.9815 1.80879 8.69652 2.94654C7.9488 3.46419 7.25859 4.09688 6.68342 4.78709C4.91358 7.11032 3.81894 9.87677 3.51996 12.782C3.46245 14.1624 3.51996 15.4853 3.9801 16.8082L4.38272 17.671L5.07293 17.7285L5.13045 17.901C4.9579 18.0161 4.72783 18.0161 4.49776 18.0736C3.92259 18.1886 3.34741 18.4187 2.82976 18.7638C2.42714 19.0514 2.02451 19.3965 1.79444 19.8566C1.50686 20.4318 1.62189 21.122 1.73693 21.7547C2.02451 22.8475 2.71472 23.8828 3.635 24.573C4.26769 25.0907 5.07293 25.3783 5.87817 25.4933C6.45335 25.6084 7.02852 25.4933 7.60369 25.4358C7.89128 25.6659 8.06383 26.126 8.23638 26.4136L9.2717 27.9666C10.2074 29.2965 11.5343 30.3017 13.0678 30.8424C14.3332 31.3601 15.6561 31.6477 16.979 31.9353L19.3372 32.3954L20.315 32.683V32.9131H19.6248C18.3319 32.8409 17.0447 32.6872 15.7712 32.4529C14.0606 32.1125 12.4245 31.4698 10.9397 30.5548C10.307 30.1522 9.73183 29.6346 9.2717 29.0019C9.67007 31.3992 9.34986 33.8609 8.35142 36.0765C7.48866 37.6295 6.05073 38.8373 4.32521 39.355C4.15265 39.4125 3.92259 39.47 3.75003 39.4125C3.635 39.4125 3.635 39.355 3.635 39.24C3.69252 39.0674 3.86507 38.9524 3.9801 38.8949C4.67031 38.4347 5.47555 38.0896 6.16576 37.572C6.91349 36.9393 7.54618 36.2491 7.9488 35.3863C8.2939 34.5235 8.52397 33.5457 8.63901 32.568C8.75404 31.8202 8.81156 31.0725 8.75404 30.2673L8.52397 28.0816L7.48866 26.011L6.39583 26.241C5.55152 26.2656 4.71449 26.0785 3.96102 25.6967C3.20755 25.315 2.5616 24.7507 2.08203 24.0554C1.33227 23.1055 0.926746 21.9295 0.931685 20.7194C0.931685 20.2017 1.10424 19.6841 1.39182 19.2815C1.67941 18.8788 2.08203 18.5337 2.48465 18.3037C2.77224 18.0736 3.17486 17.9586 3.51996 17.8435L3.00231 16.4631C2.71472 15.1977 2.71472 13.8748 2.88727 12.6094C3.26392 9.4685 4.51999 6.49779 6.51087 4.03936C7.02852 3.46419 7.54618 2.94654 8.17887 2.54391C8.58149 2.31385 8.98411 2.25633 9.32921 2.02626C11.8025 0.93343 14.5058 0.588326 17.2091 0.760878Z" fill="#262626"/>
<path d="M16.0581 1.27697C18.448 1.18807 20.8271 1.64029 23.0177 2.59987C24.3406 3.17504 25.6059 4.0378 26.6413 5.07311C27.7916 6.28097 28.5393 7.77642 28.9419 9.38691L29.287 11.9752C29.4021 13.3556 29.287 14.736 29.2295 16.1164C29.172 16.9792 29.057 17.7844 29.1145 18.6472C29.1145 18.8773 29.1145 19.1073 29.2295 19.3374L29.172 20.4877C29.057 20.7753 29.057 21.0629 29.057 21.408C28.9419 22.7884 28.9419 24.2264 28.7119 25.6643C28.6544 26.3545 28.5393 27.1022 28.2517 27.7349C28.0792 28.2526 27.7916 28.7127 27.389 29.1153C26.6988 29.8631 25.836 30.4958 24.9157 31.0134C23.8229 31.6461 22.6726 31.9337 21.5797 32.3938C21.2921 32.5089 21.0046 32.6239 20.832 32.854C21.2921 32.9115 21.6948 32.854 22.1549 32.7389C21.8673 33.4291 21.8098 34.1193 21.8098 34.8096C21.8098 35.0971 21.7523 35.4422 21.8673 35.7298C22.0399 36.0174 22.3275 36.2475 22.615 36.42L24.6281 37.1678C25.8935 37.6279 27.1014 38.2031 28.3668 38.7207C28.4818 38.9508 28.6544 39.1234 28.7119 39.4109C29.057 40.0436 29.1145 40.7338 28.8844 41.424C28.5968 42.1718 28.0217 42.8045 27.3315 43.2071C26.4112 43.8398 25.2608 44.2999 24.168 44.5875C19.6957 45.543 15.0589 45.4049 10.6514 44.1849C9.50109 43.7823 8.35075 43.3796 7.31544 42.8045C6.51019 42.3443 5.64744 41.7692 5.01474 41.0214C4.66964 40.5613 4.38205 39.9286 4.32454 39.3534C5.67136 38.9423 6.86335 38.1356 7.74552 37.038C8.62769 35.9404 9.15923 34.6028 9.27103 33.1991C9.50109 31.8187 9.50109 30.3807 9.27103 29.0003C9.73116 29.633 10.3063 30.1507 10.939 30.5533L12.492 31.3585C14.747 32.3313 17.1688 32.8587 19.6241 32.9115H20.3143V32.6814L19.3366 32.3938L16.9783 31.9337C15.6554 31.6461 14.3325 31.3585 13.0672 30.8409C12.3194 30.4958 11.5142 30.0931 10.824 29.633C10.2488 29.1153 9.73116 28.5977 9.27103 27.965L8.23571 26.412C8.06316 26.1244 7.89061 25.6643 7.60302 25.4342C7.02785 25.4918 6.45268 25.6068 5.8775 25.4918C5.07226 25.3767 4.26702 25.0891 3.63433 24.5715C2.7152 23.8604 2.04963 22.8721 1.73626 21.7531C1.62122 21.1204 1.50619 20.4302 1.79378 19.8551C2.02384 19.3949 2.42647 19.0498 2.82909 18.7622C3.34674 18.4171 3.92192 18.1871 4.49709 18.072C4.72716 18.0145 4.95723 18.0145 5.12978 17.8995L5.07226 17.7269L4.38205 17.6694L3.97943 16.8066C3.51929 15.4837 3.46178 14.1608 3.57681 12.7804C3.85894 9.88096 4.93348 7.11503 6.68275 4.78552C7.25792 4.09532 7.94813 3.46263 8.69585 2.94497C10.9759 1.78732 13.5011 1.19548 16.0581 1.21945V1.27697Z" fill="#FFDECC"/>
<path d="M3.69336 20.1484C3.92343 20.1484 4.09598 20.1484 4.32605 20.2635C4.61364 20.321 4.95874 20.4935 5.13129 20.7236C5.24633 20.8962 5.24633 21.1262 5.13129 21.2988C4.84371 21.6439 4.44108 21.874 4.21102 22.2191C4.55612 22.4491 5.01626 22.5642 5.41888 22.7367C5.64895 22.7942 5.87902 22.9093 6.05157 23.0818L6.10909 23.2544L5.64895 23.1393L4.26853 22.7367C4.03846 22.6792 3.80839 22.5642 3.75088 22.3341C3.69336 22.1615 3.80839 21.9315 3.92343 21.7589L4.78619 21.0112C4.55612 20.6086 3.92343 20.5511 3.69336 20.1484ZM29.1735 20.4935L29.2886 20.6661L29.4036 21.5864C29.5229 23.2926 29.4844 25.0062 29.2886 26.7054C29.1735 27.3381 29.001 28.0283 28.7134 28.6035C27.1873 30.6001 25.0437 32.0359 22.6166 32.6872C22.559 33.4925 22.444 34.4702 22.5015 35.3905L22.7891 35.6781C23.2492 36.0232 23.8244 36.1958 24.3421 36.3683C25.6875 36.7978 26.9955 37.3364 28.2533 37.9788C28.6559 38.2089 29.001 38.4965 29.2886 38.8416C29.001 38.8991 28.7134 38.784 28.3683 38.7265C27.1029 38.2089 25.895 37.6337 24.6297 37.1736L22.6166 36.4258C22.329 36.2533 22.0414 36.0232 21.8688 35.7356C21.7538 35.448 21.8113 35.1029 21.8113 34.8154C21.8113 34.1251 21.8688 33.4349 22.1564 32.7447C21.6963 32.8598 21.2937 32.9173 20.8335 32.8598C21.0061 32.6297 21.2937 32.5147 21.5812 32.3996C22.6741 31.9395 23.8244 31.6519 24.9172 31.0192C25.8375 30.5016 26.7003 29.8689 27.3905 29.1211C27.7931 28.7185 28.0807 28.2584 28.2533 27.7407C28.5408 27.108 28.6559 26.3603 28.7134 25.6701C28.9435 24.2322 28.9435 22.7942 29.0585 21.4138C29.0585 21.0687 29.0585 20.7811 29.1735 20.4935Z" fill="#262626"/>
<path d="M28.5975 16.6328L28.4824 17.0354C28.3099 17.323 28.1373 17.5531 27.8497 17.7256C27.5622 17.8982 27.2171 17.9557 26.8719 18.0132L25.8366 18.1283C25.5491 18.1283 25.3765 18.3008 25.2615 18.4734L24.8588 18.876C24.7438 18.9335 24.5713 18.8185 24.6288 18.7034C24.6863 18.2433 25.0314 17.8982 25.2615 17.5531C25.434 17.3805 25.6641 17.1505 25.9517 17.1505L27.6772 16.8629C27.9648 16.8054 28.2524 16.6328 28.5975 16.6328ZM11.0547 16.8629C11.7449 16.8054 12.2626 17.0354 12.8952 17.093C13.758 17.208 14.6208 17.323 15.4835 17.323L16.8639 17.4381C17.3241 17.4956 17.8417 17.4381 18.2444 17.6681C18.647 17.8982 18.9346 18.2433 19.1646 18.5884C19.2221 18.7034 19.2797 18.8185 19.1646 18.991C19.1071 19.0485 18.9921 18.991 18.9346 18.9335C18.7045 18.8185 18.5319 18.5884 18.3019 18.5309L17.6117 18.4734L16.0012 18.4158L14.7358 18.3583C14.1606 18.3008 13.5854 18.3008 13.0103 18.0707C12.6077 17.9557 12.3201 17.7256 11.9174 17.5531L11.2272 17.0354C11.1122 16.9779 11.0547 16.9779 11.0547 16.8629Z" fill="#262626"/>
<path d="M17.6686 9.96268C18.0712 9.96268 18.4739 10.0777 18.7615 10.3078C18.9915 10.4228 19.1641 10.5379 19.2216 10.7679C19.2791 10.883 19.2216 11.0555 19.1066 11.113C18.819 11.1705 18.5314 10.998 18.3013 10.9405L17.7837 10.883C17.0359 10.8254 16.2882 10.9405 15.5405 11.113C14.2819 11.4691 13.1081 12.0756 12.0894 12.8961C11.8594 13.0111 11.5718 13.1836 11.2842 13.1261C11.1116 13.1261 11.1116 12.8961 11.1692 12.7235C11.2267 12.3784 11.5718 12.0908 11.8594 11.8032C12.4345 11.2856 13.1823 10.9405 13.8725 10.6529C15.0228 10.1352 16.4032 9.84764 17.6686 9.96268ZM26.6413 10.0777C27.0439 9.96268 27.4466 10.0202 27.7917 10.2503C28.0217 10.4228 28.2518 10.5954 28.3093 10.883C28.3668 11.0555 28.3668 11.2281 28.1943 11.2856C28.0217 11.3431 27.7917 11.3431 27.6191 11.2281C27.3315 11.0555 27.1015 10.883 26.7564 10.883C26.4688 10.883 26.1812 10.9405 25.9511 11.0555C25.491 11.2856 25.0308 11.6882 24.8008 12.1483L24.4557 12.666H24.2831V12.3209C24.3981 11.8607 24.6857 11.4006 25.0308 11.0555C25.4335 10.5954 26.0086 10.1927 26.6413 10.0777Z" fill="#262626"/>
<path d="M1.16163 20.0326C1.44921 20.0326 1.7368 19.9751 1.96687 20.1477C2.13942 20.2627 2.25446 20.4353 2.19694 20.6653C2.08191 20.8954 1.85184 21.068 1.56425 21.068H0.643973C0.356386 21.0104 0.126317 20.8954 0.0112822 20.6653C-0.0462351 20.4353 0.126317 20.2627 0.298869 20.1477C0.586455 20.0326 0.874042 20.0902 1.16163 20.0326ZM1.90935 21.3555C2.08191 21.4131 2.31197 21.5281 2.31197 21.7582C2.31197 21.9307 2.25446 22.1033 2.08191 22.1608C1.79432 22.3908 1.44921 22.3908 1.10411 22.5059C0.816524 22.5634 0.528938 22.6209 0.298869 22.4484C0.0687995 22.2758 0.126317 21.9307 0.298869 21.7582C0.528938 21.5281 0.759007 21.5281 1.04659 21.4706C1.33418 21.4131 1.62177 21.298 1.90935 21.3555ZM6.0506 24.3464H6.51074C6.68329 24.404 6.85584 24.5765 6.85584 24.8066C6.85584 25.0942 6.62577 25.3242 6.33819 25.3817C6.0506 25.4968 5.82053 25.2667 5.7055 25.0366C5.64798 24.7491 5.76301 24.404 6.0506 24.3464Z" fill="#262626"/>
<path d="M23.6509 22.1562C23.6509 22.3288 23.5359 22.5014 23.4208 22.6739C23.1908 23.019 22.7882 23.2491 22.3855 23.3641C22.098 23.4216 21.8679 23.2491 21.6378 23.3641C21.4077 23.3641 21.1777 23.4216 20.9476 23.3066C20.8326 23.2491 20.8326 23.0765 20.9476 22.9615C21.1202 22.7314 21.4077 22.5589 21.6378 22.5589C21.8679 22.5014 22.0404 22.5014 22.213 22.6739L22.2705 23.0765C22.5581 22.9615 22.6731 22.7889 22.9032 22.6164L23.6509 22.1562Z" fill="#262626"/>
<path d="M30.0921 20.954C30.6098 20.954 31.0699 21.184 31.3575 21.5866C31.4919 21.7633 31.5898 21.965 31.6452 22.1799C31.7007 22.3948 31.7127 22.6187 31.6806 22.8383C31.6484 23.0579 31.5728 23.2689 31.458 23.4589C31.3433 23.6489 31.1918 23.8141 31.0124 23.9449C31.4726 24.0599 31.9327 24.3475 32.2778 24.6926C32.7955 25.3253 33.1981 26.188 33.1406 27.0508C33.083 27.5109 32.9105 27.9135 32.6804 28.2587C32.2203 29.0064 31.4726 29.524 30.6673 29.8691L31.1275 30.3868C31.3 30.7894 31.3575 31.192 31.3575 31.6522C31.3 32.3424 31.0124 33.0326 30.4948 33.5502C29.9007 34.1183 29.1286 34.4637 28.3091 34.528C27.7339 34.5856 27.1012 34.5856 26.5261 34.413C26.4686 34.8156 26.3535 35.2758 26.181 35.6784C25.7934 36.3619 25.1771 36.8866 24.4405 37.1602C23.704 37.4338 22.8945 37.4386 22.1548 37.1738C21.4645 36.8862 20.8894 36.3686 20.5443 35.7934C19.6815 36.3111 18.7612 36.4836 17.7834 36.4836C16.9782 36.5411 16.0004 36.4836 15.3102 36.081C14.8501 35.9085 14.5625 35.5634 14.2749 35.2182C14.1023 35.0457 13.9873 34.8731 13.9298 34.5856C13.2971 35.1032 12.4343 35.2182 11.6866 35.1032C11.1114 34.9307 10.5938 34.6431 10.3062 34.1254C10.0186 33.7803 9.96108 33.2627 9.96108 32.8025H9.15584C8.6957 32.745 8.23556 32.5149 7.83294 32.2273C7.20025 31.6522 6.68259 30.9044 6.33749 30.0992C6.22246 29.7541 6.10742 29.409 6.10742 29.0064C6.10742 28.3737 6.33749 27.741 6.74011 27.2233C6.56756 26.8207 6.51004 26.4181 6.62508 26.0155C6.79763 25.3253 7.31529 24.7501 7.89046 24.405C8.40811 24.0599 9.0408 23.9449 9.6735 24.0024C9.78853 23.6573 9.96108 23.4272 10.2487 23.1971C10.8814 22.622 11.6866 22.2769 12.5494 22.2769C13.1245 22.2769 13.6422 22.3344 14.1023 22.5644C14.3324 22.2193 14.62 22.0468 14.9651 21.9317C15.5978 21.6442 16.288 21.7017 16.9207 21.9893C18.0135 22.3919 18.8763 23.0246 19.9116 23.4272C20.1992 23.6573 20.6018 23.5998 21.0044 23.6573C21.407 23.7148 21.8096 23.6573 22.2123 23.5998C22.3848 23.5422 22.6149 23.5422 22.7299 23.4272L23.8228 22.852L24.9731 21.9893C25.4332 21.7017 26.0084 21.4141 26.5836 21.4716C26.8137 21.5291 26.9862 21.6442 27.1012 21.8167C27.9892 21.2358 29.0312 20.9352 30.0921 20.954Z" fill="#262626"/>
<path d="M16.232 26.296C16.4046 26.2385 16.5196 26.296 16.5196 26.411C16.5196 26.5836 16.3471 26.7561 16.1745 26.8137C16.0019 26.6411 16.0595 26.411 16.232 26.296ZM17.6699 26.9862L19.7406 27.3888L21.4661 27.5039C21.8687 27.5614 22.2138 27.5039 22.5589 27.6189C22.5014 27.7339 22.3864 27.7915 22.2138 27.849C20.7878 28.0736 19.3287 27.9553 17.9575 27.5039C17.785 27.4463 17.5549 27.3313 17.4974 27.1588C17.4399 27.0437 17.5549 26.9287 17.6699 26.9862Z" fill="#FFDECC"/>
<path d="M15.9443 0.0141248C17.5685 0.017355 19.1878 0.190855 20.7758 0.531781C21.4084 0.704333 21.9836 0.819367 22.5588 1.04944L24.5719 1.79716C25.1471 1.96971 25.6647 2.31482 26.2399 2.54489L27.1602 2.88999L28.8282 3.23509C29.1158 3.35013 29.3458 3.52268 29.4609 3.81027C29.6334 4.15537 29.5759 4.50048 29.4609 4.84558L30.036 5.13317C30.3236 5.42075 30.4387 5.82337 30.3236 6.22599C30.2086 6.45606 29.9785 6.62862 29.7485 6.74365C28.5246 7.37133 27.1148 7.53477 25.7798 7.20379L23.249 6.62862L19.6829 5.65082C16.6342 4.60776 13.3159 4.66884 10.3076 5.82337L10.0775 6.62862C9.84747 7.54889 9.67492 8.46917 9.6174 9.38945V10.3672L9.55988 10.8274C9.38733 11.23 9.04223 11.6326 8.81216 12.0352C8.12195 13.0706 7.48926 14.1634 6.9716 15.2562L6.85657 16.0615V18.3046C6.85657 18.5922 6.9716 18.8223 6.79905 19.0524C5.93629 18.9373 5.07353 18.7073 4.15325 18.4772C4.03822 18.4772 3.86567 18.4772 3.75063 18.3621L3.34801 17.8445C3.11794 17.6719 3.06042 17.3268 2.94539 17.0393C2.54277 15.8314 2.42773 14.451 2.42773 13.1281C2.42773 11.5176 2.71532 9.96462 3.00291 8.41165C3.23298 7.54889 3.57808 6.74365 3.9807 5.99593C4.55588 4.84558 5.36112 3.86778 6.28139 3.00503C7.20167 2.08475 8.2945 1.45206 9.50236 0.991919C11.5674 0.257088 13.7542 -0.0748401 15.9443 0.0141248ZM5.3036 19.0524C5.87877 19.0524 6.45395 19.2249 6.9716 19.3399C7.20167 19.3975 7.48926 19.5125 7.66181 19.685C7.83436 19.8001 7.77684 20.0302 7.60429 20.0877C7.08664 20.2602 6.68402 20.0877 6.22388 19.9726C5.87877 19.8576 5.41863 19.7426 5.07353 19.5125C4.9585 19.455 4.78594 19.2824 4.90098 19.1674C5.01601 19.0524 5.18857 19.0524 5.3036 19.0524ZM30.4387 25.7819C30.4962 25.8969 30.4962 25.9544 30.3812 26.0695L30.4387 25.7819Z" fill="#262626"/>
</svg>
