<svg width="37" height="51" viewBox="0 0 37 51" fill="none" xmlns="http://www.w3.org/2000/svg">
<path fill-rule="evenodd" clip-rule="evenodd" d="M22.1233 1.15035C21.7782 0.575173 21.2605 0.0575173 20.5128 0L20.7428 0.345104L20.8579 0.575173L21.2605 1.3229L21.3755 1.43793C21.6631 2.12814 21.8357 2.81835 21.8932 3.56607C21.8932 3.96869 21.7782 4.3138 21.6631 4.71642C21.4906 3.73862 20.9729 2.9909 20.3977 2.30069C19.7873 1.67579 19.0387 1.20296 18.2121 0.920277C17.0789 0.46996 15.8367 0.369783 14.646 0.63269C14.1859 0.690208 13.7833 0.920277 13.3231 1.15035C12.9205 1.38042 12.5754 1.72552 12.2303 2.01311C11.3948 2.84368 10.7475 3.84405 10.3322 4.94649C9.98711 5.80925 9.58449 6.67201 9.06683 7.47725C8.66421 8.16746 8.08904 8.80015 7.51387 9.3178L5.90338 10.4106C4.9577 11.0056 4.03666 11.6388 3.14255 12.3087C1.81965 13.459 0.841858 15.012 0.324202 16.7375C0.0941328 17.6003 -0.0784191 18.5206 0.0366155 19.3833C0.15165 19.8435 0.266685 20.2461 0.496754 20.6487V21.1089C0.266685 22.2017 0.209167 23.352 0.554271 24.4449C0.932869 25.735 1.57967 26.9306 2.45234 27.9534L3.25759 29.0462C3.60269 29.6214 3.89028 30.2541 3.94779 30.9443C3.94779 31.462 3.77524 31.9221 3.37262 32.2672C3.06309 32.5391 2.68465 32.7206 2.27881 32.7916C1.87297 32.8626 1.45541 32.8205 1.07193 32.6698L0.784341 32.4973L0.554271 32.3822L0.496754 32.4973C0.439237 32.5548 0.381719 32.6698 0.439237 32.7849L0.841858 33.5326C1.18696 33.9927 1.58958 34.3378 2.10724 34.5679C2.50986 34.798 2.97 34.8555 3.43014 34.7405C3.71772 34.6829 3.94779 34.5679 4.17786 34.3953C4.17786 34.9705 4.35041 35.5457 4.52297 36.0634C4.75303 36.696 5.09814 37.3287 5.61579 37.7889C6.07593 38.249 6.65111 38.4791 7.22628 38.6516C7.74394 38.8242 8.26159 38.8242 8.77925 38.7091C8.89428 38.6516 8.89428 38.5941 8.89428 38.4791L8.72173 38.0765L8.66421 37.9614L8.20407 36.8111C9.23939 37.5588 10.4472 37.9039 11.7126 38.0189C12.5179 38.0765 13.3806 37.9614 14.1284 37.6738C14.3009 37.6163 14.531 37.5013 14.5885 37.3287C14.7035 37.1562 14.5885 36.9836 14.531 36.8111L14.3009 35.9483L14.2434 35.7758C14.761 36.1209 15.2787 36.3509 15.9114 36.3509C16.6016 36.3509 17.3493 36.0634 17.7519 35.4882L17.9245 35.4307C17.6368 32.8936 17.038 30.4017 16.1415 28.0109C15.7526 26.9729 15.2714 25.972 14.7035 25.02L14.5885 24.6749C14.5885 23.8122 14.4735 22.8344 13.9558 22.1442C14.3584 21.5115 14.4159 20.7062 14.4735 20.016C14.4735 19.4408 14.4735 18.8657 14.1859 18.348L14.4159 18.2905L14.8761 18.233C14.9911 18.1755 15.0486 18.0029 15.1062 17.8879C15.4913 16.2894 16.0707 14.7441 16.8317 13.2865L17.2343 12.4813C17.3493 12.3087 17.3493 12.1362 17.4068 11.9061V11.676L17.2918 10.8708L17.2343 10.3531L18.3846 10.6982H18.9598C21.8668 10.1978 24.8308 10.1203 27.76 10.4681L28.1626 10.5832L28.4502 10.6982C28.5652 10.6982 28.7378 10.6407 28.7953 10.5257C28.9678 10.3531 29.0253 10.123 29.0829 9.89298L29.2554 10.008L29.7731 10.4106L30.1757 10.6407C30.4411 10.6903 30.7112 10.7096 30.9809 10.6982L31.9012 11.6185L31.9587 11.676C33.1708 13.0619 34.2135 14.5873 35.0647 16.2199C35.2947 16.3924 35.5823 16.2774 35.6973 16.0473C36.1 15.1271 36.1575 14.0917 35.9849 13.1139C35.6654 11.6534 34.902 10.3274 33.7993 9.3178C33.4542 8.91518 32.994 8.57008 32.5339 8.22497L30.1182 6.95959C28.9103 6.44194 27.6449 6.03932 26.3795 5.80925C24.9416 5.52166 23.5037 5.52166 22.0082 5.57918C22.6409 4.94649 22.8135 4.08373 22.8135 3.22097C22.8135 2.47324 22.5259 1.78304 22.1233 1.15035ZM7.2838 11.3884C7.974 10.5832 8.66421 9.77794 9.18187 8.80015L8.26159 9.77794C7.68642 10.2956 7.05373 10.6407 6.42104 11.0433L5.78835 11.4459L5.61579 11.5035C4.86807 11.9636 4.06283 12.4813 3.43014 13.0564C2.16476 14.1493 1.302 15.6447 0.899375 17.2552C0.726823 18.118 0.611789 19.0382 0.841858 19.901C1.18696 18.8657 1.70462 17.8304 2.27979 16.9101C3.02752 15.7597 3.94779 14.6669 4.92559 13.6891L6.01842 12.5963L7.2838 11.3884Z" fill="#262626"/>
<path d="M23.7911 6.38588C25.4016 6.4434 27.0121 6.73098 28.6226 7.24864C30.8739 7.88422 32.8795 9.18783 34.3743 10.9873C35.4671 12.4252 36.1573 14.1507 36.3874 15.9338C36.6978 17.8552 36.7366 19.8108 36.5024 21.743L36.2149 23.6986L35.9848 24.8489C35.9273 24.964 35.9273 24.964 35.8122 24.964C35.6972 24.7339 35.6972 24.5038 35.6972 24.2738C35.6397 23.411 35.7547 22.6058 35.8122 21.743C35.8698 20.3626 35.9848 18.9822 35.8698 17.6018L35.5246 15.0135C35.122 13.403 34.3743 11.9075 33.224 10.6997C32.1886 9.66436 30.9233 8.8016 29.6004 8.22643C28.335 7.70878 27.0696 7.36367 25.7467 7.1336C24.7114 6.96105 23.6761 6.90353 22.6408 6.90353C20.0885 6.86174 17.5636 7.43379 15.2786 8.57154C14.5308 9.08919 13.8406 9.72188 13.2654 10.4121C11.4956 12.7353 10.401 15.5018 10.102 18.407C10.0445 19.7874 10.102 21.1103 10.5621 22.4332L10.9648 23.296L11.655 23.3535L11.7125 23.526C11.5399 23.6411 11.3099 23.6411 11.0798 23.6986C10.5046 23.8136 9.92944 24.0437 9.41179 24.3888C9.00917 24.6764 8.60655 25.0215 8.37648 25.4816C8.08889 26.0568 8.20392 26.747 8.31896 27.3797C8.60655 28.4725 9.29675 29.5078 10.217 30.198C10.8497 30.7157 11.655 31.0033 12.4602 31.1183C13.0354 31.2334 13.6106 31.1183 14.1857 31.0608C14.4733 31.2909 14.6459 31.751 14.8184 32.0386L15.8537 33.5916C16.7894 34.9214 18.1163 35.9267 19.6499 36.4674C20.9153 36.9851 22.2381 37.2727 23.561 37.5603L25.9193 38.0204L26.8971 38.308V38.5381H26.2068C24.9139 38.4659 23.6268 38.3122 22.3532 38.0779C20.6427 37.7375 19.0066 37.0948 17.5217 36.1798C16.889 35.7772 16.3139 35.2596 15.8537 34.6269C16.2521 37.0242 15.9319 39.4859 14.9334 41.7015C14.0707 43.2545 12.6328 44.4623 10.9072 44.98C10.7347 45.0375 10.5046 45.095 10.3321 45.0375C10.217 45.0375 10.217 44.98 10.217 44.865C10.2745 44.6924 10.4471 44.5774 10.5621 44.5199C11.2523 44.0597 12.0576 43.7146 12.7478 43.197C13.4955 42.5643 14.1282 41.8741 14.5308 41.0113C14.8759 40.1485 15.106 39.1707 15.221 38.1929C15.3361 37.4452 15.3936 36.6975 15.3361 35.8923L15.106 33.7066L14.0707 31.636L12.9779 31.866C12.1336 31.8906 11.2965 31.7035 10.5431 31.3217C9.78958 30.94 9.14363 30.3757 8.66406 29.6804C7.9143 28.7305 7.50878 27.5545 7.51372 26.3444C7.51372 25.8267 7.68627 25.3091 7.97385 24.9065C8.26144 24.5038 8.66406 24.1587 9.06668 23.9287C9.35427 23.6986 9.75689 23.5836 10.102 23.4685L9.58434 22.0881C9.29675 20.8227 9.29675 19.4998 9.46931 18.2344C9.84595 15.0935 11.102 12.1228 13.0929 9.66436C13.6106 9.08919 14.1282 8.57154 14.7609 8.16891C15.1635 7.93885 15.5661 7.88133 15.9112 7.65126C18.3845 6.55843 21.0878 6.21333 23.7911 6.38588Z" fill="#262626"/>
<path d="M22.6401 6.90197C25.03 6.81307 27.4091 7.26529 29.5997 8.22487C30.9226 8.80004 32.188 9.6628 33.2233 10.6981C34.3736 11.906 35.1214 13.4014 35.524 15.0119L35.8691 17.6002C35.9841 18.9806 35.8691 20.361 35.8116 21.7414C35.754 22.6042 35.639 23.4094 35.6965 24.2722C35.6965 24.5023 35.6965 24.7323 35.8116 24.9624L35.754 26.1127C35.639 26.4003 35.639 26.6879 35.639 27.033C35.524 28.4134 35.524 29.8514 35.2939 31.2893C35.2364 31.9795 35.1214 32.7272 34.8338 33.3599C34.6612 33.8776 34.3736 34.3377 33.971 34.7403C33.2808 35.4881 32.418 36.1208 31.4978 36.6384C30.4049 37.2711 29.2546 37.5587 28.1618 38.0188C27.8742 38.1339 27.5866 38.2489 27.414 38.479C27.8742 38.5365 28.2768 38.479 28.7369 38.3639C28.4493 39.0541 28.3918 39.7443 28.3918 40.4346C28.3918 40.7221 28.3343 41.0672 28.4493 41.3548C28.6219 41.6424 28.9095 41.8725 29.1971 42.045L31.2102 42.7928C32.4756 43.2529 33.6834 43.8281 34.9488 44.3457C35.0638 44.5758 35.2364 44.7484 35.2939 45.0359C35.639 45.6686 35.6965 46.3588 35.4665 47.049C35.1789 47.7968 34.6037 48.4295 33.9135 48.8321C32.9932 49.4648 31.8429 49.9249 30.75 50.2125C26.2778 51.168 21.6409 51.0299 17.2335 49.8099C16.0831 49.4073 14.9328 49.0046 13.8975 48.4295C13.0922 47.9693 12.2295 47.3941 11.5968 46.6464C11.2517 46.1863 10.9641 45.5536 10.9066 44.9784C12.2534 44.5673 13.4454 43.7606 14.3276 42.663C15.2097 41.5654 15.7413 40.2278 15.8531 38.8241C16.0831 37.4437 16.0831 36.0057 15.8531 34.6253C16.3132 35.258 16.8884 35.7757 17.5211 36.1783L19.074 36.9835C21.329 37.9563 23.7509 38.4837 26.2062 38.5365H26.8964V38.3064L25.9186 38.0188L23.5604 37.5587C22.2375 37.2711 20.9146 36.9835 19.6492 36.4659C18.9015 36.1208 18.0962 35.7181 17.406 35.258C16.8309 34.7403 16.3132 34.2227 15.8531 33.59L14.8177 32.037C14.6452 31.7494 14.4726 31.2893 14.1851 31.0592C13.6099 31.1168 13.0347 31.2318 12.4595 31.1168C11.6543 31.0017 10.8491 30.7141 10.2164 30.1965C9.29723 29.4854 8.63166 28.4971 8.31829 27.3781C8.20326 26.7454 8.08822 26.0552 8.37581 25.4801C8.60588 25.0199 9.0085 24.6748 9.41112 24.3872C9.92877 24.0421 10.5039 23.8121 11.0791 23.697C11.3092 23.6395 11.5393 23.6395 11.7118 23.5245L11.6543 23.3519L10.9641 23.2944L10.5615 22.4316C10.1013 21.1087 10.0438 19.7858 10.1588 18.4054C10.441 15.506 11.5155 12.74 13.2648 10.4105C13.84 9.72032 14.5302 9.08762 15.2779 8.56997C17.5579 7.41232 20.0831 6.82048 22.6401 6.84445V6.90197Z" fill="#FFDECC"/>
<path d="M10.2754 25.7656C10.5055 25.7656 10.678 25.7656 10.9081 25.8807C11.1957 25.9382 11.5408 26.1107 11.7133 26.3408C11.8284 26.5134 11.8284 26.7434 11.7133 26.916C11.4257 27.2611 11.0231 27.4911 10.793 27.8362C11.1382 28.0663 11.5983 28.1814 12.0009 28.3539C12.231 28.4114 12.461 28.5265 12.6336 28.699L12.6911 28.8716L12.231 28.7565L10.8506 28.3539C10.6205 28.2964 10.3904 28.1814 10.3329 27.9513C10.2754 27.7787 10.3904 27.5487 10.5055 27.3761L11.3682 26.6284C11.1382 26.2258 10.5055 26.1682 10.2754 25.7656ZM35.7556 26.1107L35.8706 26.2833L35.9856 27.2036C36.1049 28.9098 36.0664 30.6234 35.8706 32.3226C35.7556 32.9553 35.583 33.6455 35.2954 34.2207C33.7694 36.2173 31.6258 37.6531 29.1986 38.3044C29.1411 39.1096 29.026 40.0874 29.0835 41.0077L29.3711 41.2953C29.8313 41.6404 30.4064 41.813 30.9241 41.9855C32.2695 42.415 33.5776 42.9536 34.8353 43.596C35.2379 43.8261 35.583 44.1136 35.8706 44.4588C35.583 44.5163 35.2954 44.4012 34.9503 44.3437C33.6849 43.8261 32.4771 43.2509 31.2117 42.7907L29.1986 42.043C28.911 41.8705 28.6234 41.6404 28.4509 41.3528C28.3358 41.0652 28.3933 40.7201 28.3933 40.4325C28.3933 39.7423 28.4509 39.0521 28.7384 38.3619C28.2783 38.477 27.8757 38.5345 27.4155 38.477C27.5881 38.2469 27.8757 38.1318 28.1633 38.0168C29.2561 37.5567 30.4064 37.2691 31.4993 36.6364C32.4196 36.1187 33.2823 35.4861 33.9725 34.7383C34.3751 34.3357 34.6627 33.8756 34.8353 33.3579C35.1229 32.7252 35.2379 31.9775 35.2954 31.2873C35.5255 29.8494 35.5255 28.4114 35.6405 27.031C35.6405 26.6859 35.6405 26.3983 35.7556 26.1107Z" fill="#262626"/>
<path d="M33.7988 20.1316C34.2589 20.074 34.7191 20.1891 35.0642 20.4767C35.2367 20.6492 35.4093 20.8793 35.4093 21.1094C35.4668 21.3969 35.1792 21.6845 34.8916 21.6845C34.6616 21.627 34.5465 21.512 34.4315 21.3394L33.8563 20.9368C34.374 21.8571 34.0864 23.1225 33.2811 23.7552C32.8785 24.1003 32.2458 24.2153 31.8432 23.8127C31.4981 23.5251 31.3831 23.1225 31.3831 22.6623C31.268 22.9499 31.0955 23.18 31.038 23.4676C30.9805 23.5826 30.9805 23.6976 30.8654 23.6976C30.7504 23.4101 30.8079 23.0649 30.9229 22.7198C31.268 21.7996 31.9007 20.9943 32.7635 20.5342C33.0511 20.3041 33.3962 20.1891 33.7988 20.1316ZM21.6051 20.7643C23.1581 20.8218 24.6536 21.7996 25.2862 23.18C25.4013 23.295 25.5163 23.5251 25.3438 23.6976C25.1712 23.6976 25.0562 23.4676 24.9411 23.3525C24.7111 22.8924 24.366 22.5473 23.9633 22.2597C24.0784 22.8924 24.0784 23.4676 23.7333 24.0427C23.4457 24.5029 22.813 24.7905 22.2953 24.733C21.8927 24.6179 21.4901 24.4454 21.2025 24.1003C20.8574 23.7552 20.7424 23.18 20.7424 22.7198C20.7424 22.3172 20.9149 21.9721 21.0875 21.6845C20.2822 21.8571 19.477 22.2022 18.8443 22.7198C18.6718 22.7774 18.5567 22.8924 18.3842 22.8924C18.1541 22.8349 18.0391 22.6623 18.0391 22.4323C18.0391 22.2597 18.1541 22.0872 18.2691 21.9721C18.7293 21.627 19.1894 21.2819 19.7646 21.0518C20.3398 20.8218 20.9724 20.7067 21.6051 20.7643Z" fill="#262626"/>
<path d="M22.1816 14.6081C23.0443 14.6656 24.0221 14.8957 24.7123 15.4709C24.9424 15.6434 25.1725 15.8735 25.23 16.1035C25.2875 16.2761 25.2875 16.3911 25.115 16.4486C24.9424 16.4486 24.7698 16.2761 24.6548 16.1611C24.0221 15.7009 23.2744 15.4133 22.4692 15.4133C22.009 15.4133 21.6064 15.5284 21.1463 15.6434C20.2835 15.816 19.4783 16.2761 18.9606 16.9663C18.788 17.1389 18.673 17.3689 18.3854 17.4264C18.0978 17.484 17.8103 17.2539 17.8103 16.9663C17.7527 16.7362 17.9253 16.5062 18.0403 16.3336C18.7305 15.4709 19.7658 14.8957 20.8587 14.6656C21.2613 14.5506 21.7214 14.5506 22.1816 14.6081ZM33.9726 15.1833C34.2602 15.2983 34.5478 15.5859 34.7203 15.816C34.8929 15.9885 35.0079 16.2186 35.0079 16.4486C35.0079 16.7938 34.6628 17.0238 34.3177 16.9088C34.0301 16.7938 33.9726 16.5062 33.7425 16.2761C33.5125 16.1035 33.2249 15.8735 32.9948 15.816C32.3046 15.5859 31.6144 15.8735 31.1543 16.3336L30.6366 16.8513C30.6366 16.4486 30.8667 16.1035 31.1543 15.8735C31.8445 15.1257 32.9948 14.8382 33.9726 15.1833Z" fill="#262626"/>
<path d="M30.2329 27.7812C30.2329 27.9538 30.1179 28.1264 30.0029 28.2989C29.7728 28.644 29.3702 28.8741 28.9676 28.9891C28.68 29.0466 28.4499 28.8741 28.2198 28.9891C27.9898 28.9891 27.7597 29.0466 27.5296 28.9316C27.4146 28.8741 27.4146 28.7015 27.5296 28.5865C27.7022 28.3564 27.9898 28.1839 28.2198 28.1839C28.4499 28.1264 28.6225 28.1264 28.795 28.2989L28.8525 28.7015C29.1401 28.5865 29.2552 28.4139 29.4852 28.2414L30.2329 27.7812Z" fill="#262626"/>
<path d="M22.6982 30.8828C22.8707 30.8828 22.9857 30.9978 23.1008 31.1129L23.8485 31.5155C24.4812 31.8031 25.1714 31.9756 25.8041 32.1482C26.6668 32.4358 27.5296 32.4933 28.3924 32.4933C29.0826 32.5508 29.7153 32.6083 30.348 32.5508L30.578 32.6658C29.5427 33.1835 28.2198 33.2985 27.0695 33.241C25.7466 33.1835 24.4237 32.7809 23.2733 32.2057C22.9282 31.9756 22.5256 31.7456 22.4681 31.2854C22.4106 31.1129 22.5256 30.8828 22.6982 30.8828Z" fill="#262626"/>
<path d="M24.539 5.58238C26.4682 5.69271 28.3601 6.1608 30.1182 6.96279C30.9234 7.36541 31.7862 7.76803 32.5339 8.28569C32.994 8.57328 33.4542 8.91838 33.7993 9.321L35.0646 10.7589C34.547 10.989 34.0293 10.9315 33.5117 10.874C32.5339 10.7589 31.5561 10.6439 30.5783 10.7014L30.1182 10.6439L29.7155 10.3563L29.0253 9.89617C29.0253 10.1262 28.9678 10.2988 28.8528 10.5289C28.7377 10.6439 28.6227 10.7014 28.4502 10.7014C28.2201 10.6439 28.0475 10.5289 27.8175 10.5289C24.8567 10.0925 21.844 10.1508 18.9023 10.7014H18.2696L17.2343 10.3563C17.2918 10.874 17.4643 11.3916 17.4068 11.8518C17.3493 12.0818 17.3493 12.3119 17.2343 12.4845C16.8317 13.2897 16.3715 14.0374 16.0264 14.9002C15.6238 15.878 15.2787 16.9133 15.0486 17.9486C15.0486 18.0636 14.9911 18.1787 14.8761 18.2362L14.1859 18.3512C14.4734 18.8689 14.531 19.5016 14.4734 20.0767C14.4159 20.7669 14.3009 21.5722 13.9558 22.1474C14.3584 22.665 14.531 23.3552 14.531 24.0454C14.5885 25.1383 14.531 26.1736 14.1283 27.2089C14.0133 27.439 13.8408 27.7265 13.5532 27.8416C13.4957 27.8991 13.3231 27.8991 13.3231 27.7841C13.2081 27.554 13.2081 27.2664 13.1506 27.0363C13.0355 26.1736 12.6329 25.3683 12.0002 24.7356C11.5401 24.333 11.0224 23.9304 10.5048 23.6428C10.1597 23.5278 9.87206 23.4127 9.58448 23.1827L9.23937 22.7225C8.54917 20.882 8.3191 18.8689 8.54917 16.9133C8.7937 14.6213 9.51886 12.4066 10.6773 10.4138C11.2525 9.49355 11.9427 8.68831 12.6904 7.94059C13.2656 7.42293 13.8408 6.96279 14.4734 6.61769L15.2787 6.3301L17.1192 5.69741L18.2121 5.58238H20.6853C22.0082 5.58238 23.2161 5.46734 24.539 5.58238Z" fill="#262626"/>
</svg>
